inDegrees=yes
name=ik_S46_A09_T02
DataType=double
version=3
OpenSimVersion=4.3-2021-08-27-4bc7ad9
endheader
time	pelvis_tilt	pelvis_list	pelvis_rotation	pelvis_tx	pelvis_ty	pelvis_tz	hip_flexion_r	hip_adduction_r	hip_rotation_r	knee_angle_r	knee_angle_r_beta	ankle_angle_r	subtalar_angle_r	mtp_angle_r	hip_flexion_l	hip_adduction_l	hip_rotation_l	knee_angle_l	knee_angle_l_beta	ankle_angle_l	subtalar_angle_l	mtp_angle_l	lumbar_extension	lumbar_bending	lumbar_rotation	arm_flex_r	arm_add_r	arm_rot_r	elbow_flex_r	pro_sup_r	wrist_flex_r	wrist_dev_r	arm_flex_l	arm_add_l	arm_rot_l	elbow_flex_l	pro_sup_l	wrist_flex_l	wrist_dev_l
6.379999999999952	-9.583941950565761	-1.184898024601024	28.86376215400406	0	0.9399999999999999	0	28.45046487515917	-9.710783730877996	-8.44141255021624	34.95355967738655	0.6100547016627222	0	0	0	28.45046487515917	-9.710783730877996	-8.44141255021624	34.95355967738655	0.6100547016627222	0	0	0	-7.639378554567131	-1.728883271956448	1.796098858587305	61.55560351234294	-14.80998967849412	11.09914309564138	58.99925185092716	99.20816886749991	0	0	60.93288520236233	-5.0313651869205	6.064021873901904	44.14534800553798	82.33310403916903	0	0
6.399999999999952	-9.597146348477741	-1.147035159348942	28.94229807442384	0	0.9399999999999999	0	28.45902928807523	-9.711279187963139	-8.443129641913082	34.96088551992571	0.6101825617355132	0	0	0	28.45902928807523	-9.711279187963139	-8.443129641913082	34.96088551992571	0.6101825617355132	0	0	0	-7.634124576069189	-1.684591969188252	1.764901287020297	61.47264770776508	-14.79940478602717	10.88122721180669	58.79030143757313	98.9909191034269	0	0	62.12863905998637	-5.269840396023162	6.382704216847432	41.64297450350418	82.85738501871461	0	0
6.419999999999951	-9.607875554658511	-1.127819595815631	29.00040247072147	0	0.9399999999999999	0	28.46843338260232	-9.711822391151816	-8.445013631874282	34.96893325816422	0.610323021265114	0	0	0	28.46843338260232	-9.711822391151816	-8.445013631874282	34.96893325816422	0.610323021265114	0	0	0	-7.635015372615662	-1.656451926078815	1.721213006548616	61.41018397200718	-14.7321328644062	10.64569717024904	58.50900709452035	98.50741639481573	0	0	63.30892644009822	-5.50216401119111	6.678134485448611	39.18610440511677	82.84923507288715	0	0
6.439999999999951	-9.636609404529237	-1.07113078047182	29.03406890785024	0	0.9399999999999999	0	28.47678584760248	-9.712303126464754	-8.446683466634141	34.97609834788029	0.6104480756718601	0	0	0	28.47678584760248	-9.712303126464754	-8.446683466634141	34.97609834788029	0.6104480756718601	0	0	0	-7.635252287361189	-1.58409473738849	1.684137015316714	61.38885461483692	-14.71571381595644	10.50069998186037	58.48650923851168	98.73674930480833	0	0	63.32659562103941	-5.526386316509269	6.50543527167348	37.64305700964447	83.66918753112716	0	0
6.45999999999995	-9.645781394857341	-1.049733482992077	29.08161579959277	0	0.9399999999999999	0	28.48492301766063	-9.712770790533975	-8.448309090029015	34.98308126283505	0.6105699505292075	0	0	0	28.48492301766063	-9.712770790533975	-8.448309090029015	34.98308126283505	0.6105699505292075	0	0	0	-7.634361932421204	-1.551070028118366	1.613747596044768	61.36841190030206	-14.63955229428407	10.30722292715484	58.17042238466448	98.19983884643278	0	0	64.42559770457305	-5.734948317731503	6.64199297652435	34.94407034811972	84.63466714880853	0	0
6.47999999999995	-9.665022123179172	-0.9994835980846086	29.23099993958428	0	0.9399999999999999	0	28.49215169591406	-9.713185805746383	-8.449752488275481	34.98928572182661	0.6106782387669152	0	0	0	28.49215169591406	-9.713185805746383	-8.449752488275481	34.98928572182661	0.6106782387669152	0	0	0	-7.629115453653328	-1.470883760640326	1.415089409243572	61.38625178101311	-14.65981526321859	10.41688298902586	58.08753524078858	97.99091707468084	0	0	66.46448213164825	-5.898118952590768	6.213034256801422	31.35728620921087	86.06470691903149	0	0
6.499999999999949	-9.691479934598375	-0.9566421361286628	29.32141222050565	0	0.9399999999999999	0	28.49921754391971	-9.713586401999283	-8.451152361894225	34.99541778877825	0.610785263525174	0	0	0	28.49921754391971	-9.713586401999283	-8.451152361894225	34.99541778877825	0.610785263525174	0	0	0	-7.634242769769818	-1.394586843698556	1.22707263806699	61.40847222829586	-14.56286636418196	10.35201216463454	57.99790059096933	97.95138030943497	0	0	67.50089064842228	-5.811088261438662	5.451314730785241	28.74322873103315	88.01453681445986	0	0
6.519999999999949	-9.716378770339505	-0.9064144011304761	29.23433032968645	0	0.9399999999999999	0	28.50686286515581	-9.714027024358941	-8.452683122971932	35.00194667319773	0.610899214054776	0	0	0	28.50686286515581	-9.714027024358941	-8.452683122971932	35.00194667319773	0.610899214054776	0	0	0	-7.631955634102628	-1.338048308734013	1.232849491236539	61.38500898651367	-14.41496407418374	10.28382440241371	57.90078086729578	97.97925171440367	0	0	68.1604521388452	-5.755029461852208	5.527603066042983	28.0696311340414	87.8178429826757	0	0
6.539999999999949	-9.743711802271953	-0.876602230664004	29.12210863619914	0	0.9399999999999999	0	28.51618828323112	-9.714559702362806	-8.454540102181573	35.00996958126321	0.6110392402161036	0	0	0	28.51618828323112	-9.714559702362806	-8.454540102181573	35.00996958126321	0.6110392402161036	0	0	0	-7.642406078493003	-1.294602231139152	1.241165375442017	61.4050611690032	-14.31253010353266	10.34701328418219	57.87040062784446	97.91422148107041	0	0	68.72918744553043	-5.821052708609352	5.858740852087099	24.55455026475593	89.73435402793017	0	0
6.559999999999948	-9.777792072040203	-0.8566864808548351	28.97737057804916	0	0.9399999999999999	0	28.52487084259461	-9.715057402606707	-8.456273336619333	35.01740599223911	0.6111690300721644	0	0	0	28.52487084259461	-9.715057402606707	-8.456273336619333	35.01740599223911	0.6111690300721644	0	0	0	-7.66332433224326	-1.26316710266522	1.278823951590575	61.48060245483897	-14.273978879225	10.4748212167385	57.84805507056804	97.7823178583841	0	0	69.20201542207676	-5.845822412247395	6.298392812412292	22.78545078029538	89.75070421754597	0	0
6.579999999999948	-9.787369077203223	-0.8452221526882102	28.84989451571351	0	0.9399999999999999	0	28.53169304347605	-9.715448127419293	-8.457634715180363	35.02324830562451	0.6112709976766729	0	0	0	28.53169304347605	-9.715448127419293	-8.457634715180363	35.02324830562451	0.6112709976766729	0	0	0	-7.667190105843539	-1.248052215579997	1.291211576141483	61.48630933951152	-14.11661106493774	10.49880450520141	57.83238743569994	97.7830435143517	0	0	69.48062215244886	-5.896097853651996	6.850752153831007	21.25565692031923	89.5017078384446	0	0
6.599999999999947	-9.804826929599182	-0.8400668246631939	28.77686161293143	0	0.9399999999999999	0	28.53912273243001	-9.71587427584346	-8.459118907365475	35.0295978902309	0.6113818188341884	0	0	0	28.53912273243001	-9.71587427584346	-8.459118907365475	35.0295978902309	0.6113818188341884	0	0	0	-7.680650610855115	-1.238511596585983	1.332183949565311	61.48005688335162	-14.03870681418531	10.48135395979482	57.80619559454219	97.70742905608324	0	0	69.68020781254688	-5.881677908807934	7.554742416465263	20.13601494193525	89.00601788148612	0	0
